  <svg xmlns="http://www.w3.org/2000/svg" viewBox="0 0 195 195">
    <path xmlns="http://www.w3.org/2000/svg" fill="#ccc" stroke="none" strokeWidth="1" d="M 36.00,162.00            C 21.48,147.42 15.31,134.13 11.92,114.00              11.32,110.43 10.29,103.44 10.51,100.00              11.16,89.80 12.79,80.72 16.00,71.00              19.12,61.55 23.10,52.76 29.46,45.00              52.66,16.70 94.30,5.00 129.00,16.03              136.48,18.40 142.34,21.58 149.00,25.60              162.56,33.80 171.26,43.22 179.00,57.00              179.00,57.00 158.00,67.26 158.00,67.26              155.66,68.39 150.56,71.42 148.09,71.01              145.91,70.65 137.06,59.95 134.00,57.47              124.39,49.66 110.46,44.55 98.00,45.04              92.25,45.26 83.30,47.60 78.00,49.87              73.70,51.71 68.59,54.36 65.00,57.33              41.85,76.43 44.28,95.62 46.83,122.00              46.83,122.00 50.15,155.00 50.15,155.00              50.15,155.00 53.00,176.00 53.00,176.00              45.59,171.74 41.95,167.97 36.00,162.00 Z            M 121.00,92.00            C 121.00,92.00 121.00,94.00 121.00,94.00              121.00,94.00 90.00,110.00 90.00,110.00              90.00,110.00 90.00,77.00 90.00,77.00              90.00,77.00 121.00,92.00 121.00,92.00 Z            M 190.00,100.00            C 189.94,141.25 161.69,178.12 121.00,186.99              108.81,189.64 95.27,189.86 83.00,187.54              83.00,187.54 71.00,185.00 71.00,185.00              71.54,178.36 73.83,161.62 79.21,157.60              81.33,156.01 83.50,156.05 86.00,156.00              101.25,155.72 121.02,150.55 133.00,140.67              142.64,132.72 148.44,124.07 151.52,112.00              151.52,112.00 154.02,95.49 154.02,95.49              155.52,93.31 161.45,91.27 164.00,90.14              164.00,90.14 187.00,79.00 187.00,79.00              190.10,84.33 190.01,93.85 190.00,100.00 Z"/>
  </svg>